<svg xmlns="http://www.w3.org/2000/svg" viewBox="0 0 1200 630" role="img" aria-labelledby="t d">
<title id="t">Scam prevention checklist cover</title><desc id="d">Cover image for scam prevention checklist</desc>
<defs><linearGradient id="g" x1="0" y1="0" x2="1" y2="1"><stop offset="0%" stop-color="#162447"/><stop offset="100%" stop-color="#0b5fff"/></linearGradient></defs>
<rect width="1200" height="630" rx="34" fill="#eef4ff"/>
<rect x="78" y="78" width="1044" height="474" rx="30" fill="url(#g)"/>
<circle cx="1022" cy="112" r="118" fill="#ffffff" opacity="0.08"/>
<text x="136" y="168" fill="#dfeaff" font-size="30" font-family="Arial, sans-serif" font-weight="700">PaisaPilot</text>
<text x="136" y="250" fill="#ffffff" font-size="56" font-family="Arial, sans-serif" font-weight="800">Scam Prevention</text>
<text x="136" y="318" fill="#ffffff" font-size="56" font-family="Arial, sans-serif" font-weight="800">Checklist</text>
<text x="136" y="392" fill="#dfeaff" font-size="28" font-family="Arial, sans-serif">Protect money from fake urgency, OTP traps, and payment fraud.</text>
<rect x="800" y="218" width="186" height="184" rx="26" fill="#ffffff" opacity="0.92"/>
<circle cx="892" cy="278" r="36" fill="#0b5fff" opacity="0.14"/>
<path d="M892 250c-22 0-40 18-40 40v16h80v-16c0-22-18-40-40-40zm0 18c12 0 22 10 22 22v2h-44v-2c0-12 10-22 22-22z" fill="#0b5fff"/>
<rect x="840" y="334" width="104" height="18" rx="9" fill="#ff7a00"/>
</svg>
