<svg xmlns="http://www.w3.org/2000/svg" viewBox="0 0 1200 630" role="img" aria-labelledby="title desc"><title id="title">UPI Autopay Cancel Guide Hindi</title><desc id="desc">Hindi illustration for reviewing and cancelling recurring UPI mandates.</desc><rect width="1200" height="630" rx="36" fill="#eef4ff"/><rect x="70" y="70" width="1060" height="490" rx="32" fill="url(#g3)"/><rect x="120" y="140" width="400" height="320" rx="30" fill="#ffffff" opacity="0.96"/><rect x="165" y="190" width="220" height="22" rx="11" fill="#2f6df6"/><rect x="165" y="236" width="280" height="18" rx="9" fill="#c9d9ff"/><rect x="165" y="272" width="220" height="18" rx="9" fill="#c9d9ff"/><rect x="165" y="326" width="210" height="54" rx="18" fill="#ff7a00"/><path d="M735 155h250a32 32 0 0 1 32 32v64a32 32 0 0 1-32 32H735z" fill="#fff" opacity="0.95"/><text x="760" y="220" font-size="34" font-family="Arial, sans-serif" font-weight="700" fill="#235eea">Review Karein</text><path d="M735 287h210a32 32 0 0 1 32 32v60a32 32 0 0 1-32 32H735z" fill="#fff" opacity="0.95"/><text x="760" y="347" font-size="30" font-family="Arial, sans-serif" font-weight="700" fill="#ff7a00">Safe Cancel</text><text x="120" y="100" font-size="30" font-family="Arial, sans-serif" font-weight="700" fill="#ffffff">PaisaPilot</text><text x="120" y="520" font-size="64" font-family="Arial, sans-serif" font-weight="800" fill="#ffffff">UPI Autopay Cancel Guide</text><defs><linearGradient id="g3" x1="70" y1="70" x2="1130" y2="560"><stop offset="0" stop-color="#2161f3"/><stop offset="1" stop-color="#5aa0ff"/></linearGradient></defs></svg>
